<svg width="20" height="16" fill="none" xmlns="http://www.w3.org/2000/svg"><path d="M19.706 13.015c0 .425-.12.82-.312 1.167l-6.129-6.858 6.063-5.304c.236.374.378.814.378 1.289v9.706zM10 8.569l8.436-7.38a2.396 2.396 0 00-1.157-.307H2.72c-.42 0-.81.117-1.155.306L10 8.57zm2.352-.446l-1.953 1.71a.606.606 0 01-.798 0l-1.954-1.71-6.206 6.945a2.4 2.4 0 001.28.373h14.558a2.4 2.4 0 001.28-.373l-6.207-6.945zM.672 2.02a2.41 2.41 0 00-.378 1.289v9.706c0 .425.12.82.312 1.167l6.128-6.859L.672 2.02z" fill="#251D1A"/></svg>