<svg width="78" height="78" fill="none" xmlns="http://www.w3.org/2000/svg"><path d="M68.638 51.862A11.428 11.428 0 0165.25 43.7V21.862C65.25 9.939 55.563.25 43.638.25c-1.55 0-3.113.175-4.638.5a22.32 22.32 0 00-4.637-.5C22.438.25 12.75 9.938 12.75 21.863V43.7c0 3.087-1.2 5.987-3.387 8.162l-1.225 1.225 1.55.775a36.886 36.886 0 0016.45 3.888H29v-3.469h.039A14.974 14.974 0 0121.5 41.288v-7.5a1.9 1.9 0 01.05-.463l-.012.025A4.999 4.999 0 0124 24v-.075a9.98 9.98 0 015.525-8.938L31.5 14a14.709 14.709 0 007.688 7.075l1.062.425L41.5 14l4.463.738a9.677 9.677 0 015.212 2.687A9.632 9.632 0 0154 24.238V24a4.999 4.999 0 012.463 9.35l-.013-.025c.038.15.05.3.05.462v7.5a14.974 14.974 0 01-7.539 12.994h.04v3.469h2.862a36.886 36.886 0 0016.45-3.888l1.55-.775-1.225-1.225z" fill="#FF6E40"/><path d="M41.5 38.705A2.78 2.78 0 0139 40.25a2.78 2.78 0 01-2.5-1.545l-.13-.264-2.237 1.119.131.264A5.266 5.266 0 0039 42.75a5.265 5.265 0 004.737-2.928l.13-.263-2.235-1.12-.132.266z" fill="#EFE7E2"/><path d="M65.655 62.008l-15.405-2.8V54.98a16.23 16.23 0 007.5-13.691v-7.292A6.266 6.266 0 0060.25 29c0-3.051-2.2-5.589-5.095-6.134a10.784 10.784 0 00-3.09-6.319 10.813 10.813 0 00-5.901-3.037l-5.69-.95-1.199 7.196a13.425 13.425 0 01-6.311-5.697l.592-.889a12.148 12.148 0 0110.129-5.42c2.411 0 4.746.706 6.754 2.045l.367.245 1.387-2.08-.368-.245a14.63 14.63 0 00-8.14-2.465 14.649 14.649 0 00-12.211 6.535l-.83 1.246-1.675.838c-3.515 1.756-5.787 5.146-6.145 9.001-2.885.551-5.074 3.086-5.074 6.13 0 1.976.941 3.826 2.5 4.998v7.292a16.23 16.23 0 007.5 13.691v4.227l-15.405 2.8A14.724 14.724 0 00.25 76.5v1.25h77.5V76.5a14.724 14.724 0 00-12.095-14.492zM27.75 45.684a16.242 16.242 0 002.5 1.987v5.87l-.269-.146c-.809-.436-1.54-.966-2.231-1.538v-6.173zm5 3.277c.811.34 1.641.64 2.5.844v6.428l-2.5-1.346v-5.925zm5 1.214c.416.033.83.074 1.25.074.42 0 .834-.041 1.25-.074v7.326a3.747 3.747 0 01-2.5 0v-7.326zm5-.37a16.244 16.244 0 002.5-.843v5.925l-2.5 1.346v-6.428zm5 3.735v-5.868a16.242 16.242 0 002.5-1.988v6.172c-.691.573-1.422 1.104-2.231 1.54l-.269.144zM50 42.251a13.818 13.818 0 01-11 5.499 13.82 13.82 0 01-11-5.499c-.01-.014-.019-.029-.03-.042l1.56-3.512a5.807 5.807 0 017.9-2.835l1.57.785 1.57-.785a5.807 5.807 0 017.9 2.835l1.56 3.512-.03.042zM36.057 59.51c.903.485 1.92.741 2.943.741 1.023 0 2.04-.256 2.943-.741l5.807-3.127v3.243L39 66.188l-8.75-6.563v-3.242l5.807 3.126zm.96 8.316l-7.268 6.359L26.914 61.9l1.772-.322 8.33 6.247zM39 69.411l6.672 5.839H32.328L39 69.411zm1.984-1.586l8.33-6.248 1.772.323-2.835 12.284-7.267-6.359zM55.25 41.29c0 2.873-.916 5.59-2.5 7.858v-6.492A16.367 16.367 0 0055.25 34v7.29zM57.75 29c0 .889-.341 1.718-.894 2.383-.07-.083-.127-.173-.205-.25l-1.401-1.4V25.48c1.451.517 2.5 1.892 2.5 3.52zm-32.5-5.07a8.7 8.7 0 014.837-7.826l.898-.449a15.941 15.941 0 007.741 6.583l2.502 1 1.3-7.798 3.224.537a8.323 8.323 0 014.545 2.34 8.314 8.314 0 012.453 5.92V34c0 1.904-.41 3.794-1.172 5.532l-.823-1.85a8.313 8.313 0 00-7.589-4.932 8.34 8.34 0 00-3.713.876l-.453.227-.451-.227a8.312 8.312 0 00-11.304 4.055l-.823 1.852A13.812 13.812 0 0125.25 34V23.93zm-2.5 1.55v4.253l-1.401 1.4c-.078.078-.135.167-.205.25-.553-.665-.894-1.494-.894-2.383 0-1.628 1.049-3.003 2.5-3.52zm0 15.81V34c0 3.051.881 6.078 2.5 8.656v6.492c-1.584-2.268-2.5-4.986-2.5-7.858zm-9.957 23.176l11.658-2.12L27.43 75.25H2.814a12.226 12.226 0 019.979-10.784zM50.57 75.25l2.978-12.904 11.658 2.12a12.227 12.227 0 019.98 10.784H50.57z" fill="#EFE7E2"/><path d="M31.5 26.5c.689 0 1.25.56 1.25 1.25h2.5A3.755 3.755 0 0031.5 24a3.755 3.755 0 00-3.75 3.75h2.5c0-.69.561-1.25 1.25-1.25zm15 0c.689 0 1.25.56 1.25 1.25h2.5A3.755 3.755 0 0046.5 24a3.755 3.755 0 00-3.75 3.75h2.5c0-.69.561-1.25 1.25-1.25z" fill="#EFE7E2"/></svg>