<svg width="79" height="78" fill="none" xmlns="http://www.w3.org/2000/svg"><path d="M46.25 45.25v11.596A2.489 2.489 0 0147.5 59c0 .922-.506 1.72-1.25 2.154V71.5h12.5V45.25h-12.5zm-10 7.5h-22.5v-12.5h22.5v12.5z" fill="#FF6E40"/><path d="M47.193 17.75a4.05 4.05 0 00-3.937 3.074l-.155.62-1.59-.454-2.809-9.832-2.403.687 2.381 8.336-8.336-2.381-.688 2.404 9.833 2.808.454 1.59-.62.155a4.048 4.048 0 00-3.073 3.935 4.062 4.062 0 004.057 4.058 3.447 3.447 0 003.31-4.389L42.32 23.82l4.544 1.299a3.446 3.446 0 004.386-3.311 4.062 4.062 0 00-4.057-4.058zm-6.886 12.5a1.56 1.56 0 01-1.557-1.558c0-.716.485-1.337 1.18-1.51l.7-.176.582 2.04a.943.943 0 01-.905 1.204zm7.242-7.536l-2.043-.584.175-.7a1.555 1.555 0 011.512-1.18 1.56 1.56 0 011.557 1.558c0 .606-.62 1.07-1.201.906z" fill="#EFE7E2"/><path d="M76.25 27.75h-.82l3.51-11.699-.659-.526C65.97 5.674 50.505.25 34.74.25H21.25v11.006C9.74 13.285 2.23 17.705 1.856 17.93l-.892.536 3.482 9.285H3.75a2.502 2.502 0 00-2.5 2.5v2.5c0 1.379 1.121 2.5 2.5 2.5V62.19a4.99 4.99 0 00-2.5 4.311c0 .78.2 1.531.54 2.216a2.48 2.48 0 00-.54 1.534v7.5h75v-10c1.379 0 2.5-1.121 2.5-2.5v-17.5a2.49 2.49 0 00-1.021-2.005 4.95 4.95 0 001.021-2.995c0-1.843-1.012-3.438-2.5-4.305V35.25c1.379 0 2.5-1.121 2.5-2.5v-2.5c0-1.379-1.121-2.5-2.5-2.5zm-52.5-25h10.99c14.921 0 29.56 5.037 41.32 14.205L72.82 27.75h-4.07v-8.151l-.532-.374c-.21-.146-5.144-3.546-14.338-6.134C51.026 8.401 45.881 5.25 40 5.25c-4.671 0-8.876 1.992-11.844 5.159a65.533 65.533 0 00-4.406.456V2.75zM40 35.25c-7.581 0-13.75-6.169-13.75-13.75S32.42 7.75 40 7.75s13.75 6.169 13.75 13.75S47.581 35.25 40 35.25zm-27.849-7.5l-1.963-5.89c.847-.317 1.767-.64 2.748-.959l1.713 6.849H12.15zm5.075 0l-1.895-7.578a65.96 65.96 0 012.53-.656l1.832 8.234h-2.467zm5.027 0l-1.95-8.776a63.947 63.947 0 013.76-.635 16.164 16.164 0 00.94 9.411h-2.75zm43.997-4.718c-1.975-1.098-5.427-2.78-10.255-4.308a16.179 16.179 0 00-.676-2.595c5.871 1.868 9.611 3.988 10.931 4.803v2.1zm-10.004-1.598l.004.001v6.315h-1.254a16.164 16.164 0 001.254-6.25c0-.023-.004-.044-.004-.066zm2.504.897c.91.35 1.74.695 2.5 1.03v4.389h-2.5v-5.419zm5 2.212a35.09 35.09 0 012.5 1.39v1.817h-2.5v-3.207zM26.121 13.09c-.506.833-.938 1.71-1.29 2.632-9.235 1.118-16.475 4.013-20.083 5.71l-.698-1.86c2.659-1.394 10.948-5.31 22.071-6.482zM5.63 23.784a55.134 55.134 0 012.231-.999l1.655 4.965h-2.4L5.63 23.784zM3.75 30.25h22.58a16.309 16.309 0 001.972 2.5H3.751v-2.5zm1.684 33.904l.897-.313-.06-.949-.02-.142c0-1.379 1.12-2.5 2.5-2.5 1.052 0 1.995.678 2.345 1.684l.313.897.949-.061.142-.02c1.379 0 2.5 1.121 2.5 2.5s-1.121 2.5-2.5 2.5H4.091a2.492 2.492 0 01-.34-1.25c0-1.052.677-1.996 1.683-2.346zm26.632 0A2.495 2.495 0 0133.75 66.5c0 .444-.121.873-.341 1.25H25a2.503 2.503 0 01-2.5-2.5c0-1.379 1.121-2.5 2.456-2.5l1.134.081.313-.897a2.498 2.498 0 012.347-1.684c1.379 0 2.5 1.121 2.5 2.456l-.081 1.134.897.314zm-8.33-3.725C21.59 60.992 20 62.932 20 65.25c0 .915.265 1.761.695 2.5h-3.891a4.938 4.938 0 00.696-2.5 5.008 5.008 0 00-4.417-4.966 4.98 4.98 0 00-.953-1.19A3.762 3.762 0 0115 57.75c.938 0 1.84.36 2.543 1.013l.96.893.846-1.003a2.49 2.49 0 011.901-.903c1.379 0 2.5 1.121 2.5 2.5 0 .06-.011.119-.015.179zM33.75 75.25h-30v-5h30v5zm2.5-2.5h30v2.5h-30v-2.5zm25-2.5h-7.5v-2.5h5v-2.5h-5v-2.5h5v-2.5h-5v-2.5h5v-2.5h-5v-2.5h5v-2.5h-5v-5h-2.5v5h-5v2.5h5v2.5h-5v.23c-.392-.14-.81-.23-1.25-.23-.44 0-.857.09-1.25.23V42.75h17.5v27.5zM45 60.25c-.689 0-1.25-.561-1.25-1.25s.561-1.25 1.25-1.25 1.25.561 1.25 1.25-.561 1.25-1.25 1.25zm3.52-2.5h2.73v2.5h-2.73c.14-.392.23-.81.23-1.25 0-.44-.09-.858-.23-1.25zm-4.77 4.77c.393.14.81.23 1.25.23.44 0 .858-.09 1.25-.23v.23h5v2.5h-5v2.5h5v2.5h-7.5v-7.73zm27.5 2.73v-2.5h5.001v2.5h-5zm0-22.5c0-1.379 1.121-2.5 2.5-2.5s2.5 1.121 2.5 2.5-1.121 2.5-2.5 2.5a2.503 2.503 0 01-2.5-2.5zm5 5v2.5h-5v-2.5h5zm.001 11.415l-5-3.334v-1.995l5 3.334v1.995zM74.13 52.75h2.121v1.415L74.13 52.75zm-.758 7.5h-2.12v-1.415l2.12 1.415zm.38-22.5c-2.758 0-5 2.242-5 5a4.95 4.95 0 001.02 2.995 2.49 2.49 0 00-1.02 2.005v17.5c0 1.379 1.12 2.5 2.5 2.5h2.5v7.5h-5v-2.5c0-1.379-1.122-2.5-2.5-2.5h-2.5v-30h-22.5v30h-5a2.48 2.48 0 00-.54-1.534 4.98 4.98 0 00.54-2.216 4.99 4.99 0 00-2.535-4.333 5.008 5.008 0 00-4.966-4.417 4.947 4.947 0 00-2.794.876c-.678-1.957-2.52-3.376-4.706-3.376a4.952 4.952 0 00-2.932.966A6.183 6.183 0 0015 55.25a6.262 6.262 0 00-5.09 2.646 4.904 4.904 0 00-1.16-.146c-.912 0-1.762.254-2.5.682V35.25h25.13a16.13 16.13 0 008.62 2.5 16.13 16.13 0 008.621-2.5h25.13v2.5zm2.5-5H51.698a16.321 16.321 0 001.972-2.5h22.58v2.5z" fill="#EFE7E2"/><path d="M23.75 40.25h2.5v12.5h-2.5v-12.5z" fill="#EFE7E2"/></svg>