<svg width="80" height="80" fill="none" xmlns="http://www.w3.org/2000/svg"><path d="M67.5 71.25h-15a3.755 3.755 0 01-3.75-3.75 3.755 3.755 0 013.75-3.75h15a3.755 3.755 0 013.75 3.75 3.755 3.755 0 01-3.75 3.75zm-51.25-45h1.25v-1.742a8.422 8.422 0 012.733-6.21 4.36 4.36 0 004.126 2.952h11.596a4.049 4.049 0 003.879-2.891 8.42 8.42 0 012.666 6.148v1.743h1.25c1.038 0 1.976.421 2.655 1.102l1.023-2.556a18.411 18.411 0 001.322-6.866 18.466 18.466 0 00-6.458-14.039l-3.36-2.88-.742.371c-2.254 1.128-8.202 2.802-16.747 4.714-4.53 1.014-7.693 4.97-7.693 9.619v.018l-.445.444a6.971 6.971 0 00-2.055 4.962c0 1.082.256 2.167.74 3.137l1.564 3.127a3.734 3.734 0 012.696-1.153z" fill="#FF6E40"/><path d="M25 27.5c.689 0 1.25.561 1.25 1.25h2.5A3.755 3.755 0 0025 25a3.755 3.755 0 00-3.75 3.75h2.5c0-.689.561-1.25 1.25-1.25zm10 0c.689 0 1.25.561 1.25 1.25h2.5A3.755 3.755 0 0035 25a3.755 3.755 0 00-3.75 3.75h2.5c0-.689.561-1.25 1.25-1.25zm1.122 6.837l.063-.192-2.37-.791-.065.194A3.948 3.948 0 0130 36.25a3.948 3.948 0 01-3.75-2.704l-.063-.192-2.372.791.064.191A6.441 6.441 0 0030 38.75a6.442 6.442 0 006.122-4.413zm-4.369-24.081l5-3.75 1.5 2-5 3.75-1.5-2z" fill="#EFE7E2"/><path d="M75.526 58.803a4.95 4.95 0 00.724-2.553c0-2.124-1.336-3.93-3.206-4.654.44-.702.706-1.526.706-2.415 0-2.3-1.72-4.25-4.004-4.535l-.412-.051a10.163 10.163 0 01-8.174-6.309l-.555-1.387-8.964 5.601a6.118 6.118 0 00-2.891 5.218c0 .763.155 1.496.414 2.18a13.641 13.641 0 00-1.775-.45l-6.57-1.16a5.006 5.006 0 01-4.063-4.102l-.339-2.035A13.816 13.816 0 0042.795 35h.955c2.758 0 5-2.242 5-5s-2.242-5-5-5v-.494a9.7 9.7 0 00-2.575-6.555c.035-.246.075-.491.075-.746 0-.817-.194-1.636-.559-2.369l-.822-1.646-2.236 1.119.822 1.646a2.798 2.798 0 01-2.5 4.045h-4.442c.252-.637.67-1.204 1.26-1.596l1.67-1.114-1.387-2.08-1.67 1.114A5.9 5.9 0 0028.891 20H26.25c0-1.956.935-3.826 2.5-5l2-1.5-1.5-2-2 1.5a8.791 8.791 0 00-3.496 6.939 3.112 3.112 0 01-2.504-3.048c0-1.576.753-3.081 2.014-4.026L25.75 11l-1.5-2-2.486 1.865a7.567 7.567 0 00-3.014 6.026c0 .353.041.694.104 1.028a9.697 9.697 0 00-2.604 6.587V25c-2.758 0-5 2.242-5 5s2.242 5 5 5h.955a13.815 13.815 0 006.378 7.151l-.34 2.035a5.008 5.008 0 01-4.062 4.102l-6.57 1.16A13.728 13.728 0 001.25 62.987V78.75h72.5c2.757 0 5-2.243 5-5V62.5c0-1.888-1.406-3.439-3.224-3.697zm-4.276-.053h-22.5a2.503 2.503 0 01-2.5-2.5c0-1.379 1.121-2.5 2.5-2.5h22.5c1.379 0 2.5 1.121 2.5 2.5s-1.121 2.5-2.5 2.5zM52.966 44.619l6.503-4.063a12.663 12.663 0 009.556 6.519l.412.051a2.073 2.073 0 011.813 2.055 2.071 2.071 0 01-2.07 2.069H53.954l-.206-.07a3.643 3.643 0 01-2.498-3.462c0-1.268.641-2.427 1.716-3.1zM46.25 30c0 1.379-1.121 2.5-2.5 2.5h-.239c.15-.813.239-1.645.239-2.5v-2.5c1.379 0 2.5 1.121 2.5 2.5zm-30 2.5a2.503 2.503 0 01-2.5-2.5c0-1.379 1.121-2.5 2.5-2.5V30c0 .855.089 1.688.239 2.5h-.239zm2.5-2.5v-5.494a7.18 7.18 0 011.285-4.086c1.029 1.259 2.575 2.08 4.324 2.08h11.596c1.653 0 3.113-.776 4.084-1.966a7.187 7.187 0 011.211 3.972V30c0 6.203-5.047 11.25-11.25 11.25S18.75 36.203 18.75 30zm6.959 14.596l.242-1.456a13.717 13.717 0 008.096 0l.243 1.456c.415 2.493 2.064 4.55 4.293 5.57a11.62 11.62 0 01-8.372 3.584h-.422a11.622 11.622 0 01-8.373-3.584c2.229-1.02 3.878-3.077 4.293-5.57zM41.92 76.25H13.75v-12.5h-2.5v12.5h-7.5V62.987c0-5.47 3.909-10.128 9.295-11.078l5.709-1.008c2.667 3.351 6.721 5.349 11.035 5.349h.422c4.314 0 8.368-1.998 11.035-5.35l5.229.922c-1.61.833-2.725 2.494-2.725 4.428 0 .936.275 1.804.724 2.553-1.818.258-3.224 1.81-3.224 3.697v11.25c0 .91.244 1.764.671 2.5zm34.329-2.5c0 1.379-1.121 2.5-2.5 2.5h-27.5a2.503 2.503 0 01-2.5-2.5V62.5c0-.69.561-1.25 1.25-1.25h30c.689 0 1.25.56 1.25 1.25v11.25z" fill="#EFE7E2"/></svg>