<svg width="43" height="45" fill="none" xmlns="http://www.w3.org/2000/svg"><path d="M37.187 7.314c-8.837 0-16 7.163-16 16 8.836 0 16-7.164 16-16z" fill="#FF6E40"/><path d="M37.187 37.316c-8.837 0-16-7.164-16-16 8.836 0 16 7.163 16 16zm-16.001-14c-8.836 0-16-7.164-16-16 8.837 0 16 7.163 16 16z" fill="#FF6E40"/><path d="M21.186 21.314c-8.836 0-16 7.163-16 16 8.837 0 16-7.164 16-16z" fill="#FF6E40"/><path d="M42.813 22.629c-6.249-6.248-16.38-6.248-22.628 0 6.249 6.248 16.38 6.248 22.628 0z" fill="#FF6E40"/><path d="M42.813 22.629c-6.249-6.248-16.38-6.248-22.628 0 6.249 6.248 16.38 6.248 22.628 0z" fill="#FF6E40"/><path d="M22.814 22.63c-6.248-6.25-16.38-6.25-22.627 0 6.248 6.248 16.379 6.248 22.627 0z" fill="#FF6E40"/><path d="M21.5 22.627C15.252 16.38 15.252 6.248 21.5 0c6.249 6.248 6.249 16.379 0 22.627z" fill="#FF6E40"/><path d="M21.5 22.002c-6.248 6.248-6.248 16.379 0 22.627 6.249-6.248 6.249-16.379 0-22.627z" fill="#FF6E40"/></svg>