<svg width="199" height="45" fill="none" xmlns="http://www.w3.org/2000/svg"><path d="M38.187 7.314c-8.837 0-16 7.163-16 16 8.836 0 16-7.164 16-16z" fill="#FF6E40"/><path d="M38.187 37.316c-8.837 0-16-7.164-16-16 8.836 0 16 7.163 16 16zm-16.001-14c-8.836 0-16-7.164-16-16 8.837 0 16 7.163 16 16z" fill="#FF6E40"/><path d="M22.186 21.314c-8.836 0-16 7.163-16 16 8.837 0 16-7.164 16-16z" fill="#FF6E40"/><path d="M43.813 22.629c-6.249-6.248-16.38-6.248-22.628 0 6.249 6.248 16.38 6.248 22.628 0z" fill="#FF6E40"/><path d="M43.813 22.629c-6.249-6.248-16.38-6.248-22.628 0 6.249 6.248 16.38 6.248 22.628 0z" fill="#FF6E40"/><path d="M23.814 22.63c-6.248-6.25-16.38-6.25-22.627 0 6.248 6.248 16.379 6.248 22.627 0z" fill="#FF6E40"/><path d="M22.5 22.627C16.252 16.38 16.252 6.248 22.5 0c6.249 6.248 6.249 16.379 0 22.627z" fill="#FF6E40"/><path d="M22.5 22.002c-6.248 6.248-6.248 16.379 0 22.627 6.249-6.248 6.249-16.379 0-22.627z" fill="#FF6E40"/><path d="M67.568 16.14c.693 0 1.307.101 1.84.304a5.178 5.178 0 011.536.912l-1.248 1.488a4.095 4.095 0 00-.976-.576 2.731 2.731 0 00-1.024-.192c-.747 0-1.339.315-1.776.944-.427.63-.64 1.6-.64 2.912 0 1.29.213 2.25.64 2.88.437.619 1.04.928 1.808.928a2.66 2.66 0 001.104-.224c.33-.16.688-.384 1.072-.672l1.168 1.504a5.012 5.012 0 01-1.52 1.024c-.587.267-1.237.4-1.952.4-1.024 0-1.915-.224-2.672-.672-.757-.448-1.35-1.11-1.776-1.984-.416-.885-.624-1.947-.624-3.184 0-1.205.213-2.245.64-3.12.437-.875 1.035-1.536 1.792-1.984.768-.459 1.637-.688 2.608-.688zm8.843 0c1.578 0 2.805.507 3.68 1.52.885 1.013 1.328 2.443 1.328 4.288 0 1.205-.203 2.245-.608 3.12-.395.875-.971 1.547-1.728 2.016-.747.459-1.638.688-2.672.688-1.035 0-1.926-.23-2.672-.688-.747-.459-1.323-1.12-1.728-1.984-.395-.875-.592-1.925-.592-3.152 0-1.195.197-2.23.592-3.104.405-.875.981-1.541 1.728-2 .746-.47 1.637-.704 2.672-.704zm0 1.92c-.758 0-1.323.31-1.696.928-.363.608-.544 1.595-.544 2.96s.186 2.357.56 2.976c.373.619.933.928 1.68.928.768 0 1.333-.304 1.696-.912.373-.619.56-1.616.56-2.992s-.187-2.368-.56-2.976c-.374-.608-.939-.912-1.696-.912zm11.062-1.92c1.579 0 2.805.507 3.68 1.52.885 1.013 1.328 2.443 1.328 4.288 0 1.205-.203 2.245-.608 3.12-.395.875-.97 1.547-1.728 2.016-.746.459-1.637.688-2.672.688-1.034 0-1.925-.23-2.672-.688-.746-.459-1.323-1.12-1.728-1.984-.394-.875-.592-1.925-.592-3.152 0-1.195.198-2.23.592-3.104.406-.875.982-1.541 1.728-2 .747-.47 1.638-.704 2.672-.704zm0 1.92c-.757 0-1.323.31-1.696.928-.362.608-.544 1.595-.544 2.96s.187 2.357.56 2.976c.373.619.933.928 1.68.928.768 0 1.334-.304 1.696-.912.374-.619.56-1.616.56-2.992s-.186-2.368-.56-2.976c-.373-.608-.938-.912-1.696-.912zm9.207-1.648v9.008H101l-.272 2.08h-6.672V16.412h2.624zm15.28 5.216c.736.139 1.333.41 1.792.816.469.405.704 1.013.704 1.824 0 1.184-.427 2.021-1.28 2.512-.843.48-2.027.72-3.552.72h-3.568V16.412h3.136c1.557 0 2.746.224 3.568.672.821.437 1.232 1.157 1.232 2.16 0 .65-.198 1.179-.592 1.584a2.912 2.912 0 01-1.44.8zm-3.28-3.36v2.576h.976c1.109 0 1.664-.448 1.664-1.344 0-.448-.15-.763-.448-.944-.299-.192-.774-.288-1.424-.288h-.768zm.96 7.328c.693 0 1.216-.101 1.568-.304.362-.213.544-.603.544-1.168 0-1.024-.64-1.536-1.92-1.536h-1.152v3.008h.96zm12.053 1.904l-.576-2.384h-3.232l-.56 2.384h-2.721l3.345-11.088h3.184l3.344 11.088h-2.784zm-3.36-4.288h2.336l-1.168-4.896-1.168 4.896zm10.605.048h-1.024v4.24h-2.624V16.412h3.632c1.515 0 2.651.277 3.408.832.768.555 1.152 1.403 1.152 2.544 0 .715-.171 1.312-.512 1.792-.341.47-.88.87-1.616 1.2l2.816 4.72h-2.96l-2.272-4.24zm-1.024-1.808h1.104c.587 0 1.024-.133 1.312-.4.299-.267.448-.688.448-1.264 0-.533-.16-.923-.48-1.168-.309-.245-.789-.368-1.44-.368h-.944v3.2zm13.155.176c.736.139 1.333.41 1.792.816.469.405.704 1.013.704 1.824 0 1.184-.427 2.021-1.28 2.512-.843.48-2.027.72-3.552.72h-3.568V16.412h3.136c1.557 0 2.747.224 3.568.672.821.437 1.232 1.157 1.232 2.16 0 .65-.197 1.179-.592 1.584a2.912 2.912 0 01-1.44.8zm-3.28-3.36v2.576h.976c1.109 0 1.664-.448 1.664-1.344 0-.448-.149-.763-.448-.944-.299-.192-.773-.288-1.424-.288h-.768zm.96 7.328c.693 0 1.216-.101 1.568-.304.363-.213.544-.603.544-1.168 0-1.024-.64-1.536-1.92-1.536h-1.152v3.008h.96zm13.091-9.184l-.272 1.872h-3.904v2.656h3.408v1.84h-3.408v2.832h4.176V27.5h-6.8V16.412h6.8zm5.27 6.848h-1.024v4.24h-2.624V16.412h3.632c1.515 0 2.651.277 3.408.832.768.555 1.152 1.403 1.152 2.544 0 .715-.171 1.312-.512 1.792-.341.47-.88.87-1.616 1.2l2.816 4.72h-2.96l-2.272-4.24zm-1.024-1.808h1.104c.587 0 1.024-.133 1.312-.4.299-.267.448-.688.448-1.264 0-.533-.16-.923-.48-1.168-.309-.245-.789-.368-1.44-.368h-.944v3.2z" fill="#EFE7E2"/></svg>