<svg width="18" height="18" fill="none" xmlns="http://www.w3.org/2000/svg"><path d="M15.138 11.26c-.65-.642-1.462-.642-2.109 0-.493.49-.986.979-1.47 1.476-.133.136-.245.165-.407.074-.319-.174-.659-.315-.965-.505-1.43-.9-2.627-2.055-3.688-3.357-.526-.646-.994-1.338-1.322-2.117-.066-.157-.054-.26.075-.39.493-.476.974-.965 1.458-1.454.676-.68.676-1.475-.004-2.159-.385-.389-.77-.77-1.156-1.16-.398-.397-.791-.8-1.193-1.193-.65-.634-1.463-.634-2.11.004-.496.489-.973.99-1.478 1.471-.469.443-.705.986-.755 1.62-.078 1.032.174 2.006.53 2.955.73 1.964 1.84 3.708 3.187 5.307a19.719 19.719 0 006.53 5.11c1.144.555 2.33.981 3.618 1.052.886.05 1.657-.174 2.275-.866.422-.473.899-.903 1.346-1.355.663-.671.667-1.483.009-2.146-.788-.792-1.58-1.58-2.37-2.366z" fill="#3B322D"/></svg>