<svg width="18" height="18" fill="none" xmlns="http://www.w3.org/2000/svg"><path d="M14.907 4.48c-.064-.24-.194-.496-.29-.72C13.465.992 10.947 0 8.916 0 6.195 0 3.2 1.824 2.8 5.584v.768c0 .032.01.32.027.464.224 1.792 1.638 3.696 2.694 5.488 1.136 1.92 2.314 3.808 3.482 5.696.72-1.232 1.438-2.48 2.142-3.68.192-.352.414-.704.606-1.04.128-.224.373-.448.484-.656 1.136-2.08 2.965-4.176 2.965-6.24v-.848c0-.224-.277-1.008-.293-1.056zM8.966 8.336c-.8 0-1.675-.4-2.107-1.504-.064-.176-.06-.528-.06-.56v-.496c0-1.408 1.196-2.048 2.236-2.048 1.28 0 2.27 1.024 2.27 2.304 0 1.28-1.059 2.304-2.34 2.304z" fill="#3B322D"/></svg>